<svg version="1.1" id="Layer_1" xmlns="http://www.w3.org/2000/svg" xmlns:xlink="http://www.w3.org/1999/xlink" x="0px" y="0px" viewBox="0 0 500 500" style="width: 151px;" xml:space="preserve" data-imageid="apple-56" imageName="Apple" class="illustrations_image">
<style type="text/css">
	.st0_apple-56{fill:#093F68;}
	.st1_apple-56{fill:#68E1FD;}
	.st2_apple-56{fill:#70CC40;}
	.st3_apple-56{fill:#FFFFFF;}
	.st4_apple-56{fill:#DFEAEF;}
</style>
<g id="apple-1_apple-56">
	<path class="st0_apple-56" d="M223.7,122.1c0,0-31.1,33.5-37.3,76.9h4.2c0,0,4.2-36.5,44.7-71.8C235.4,127.2,233.4,119.6,223.7,122.1z"/>
	<path class="st0_apple-56" d="M190.7,200.9h-4.2c-0.5,0-1-0.2-1.4-0.6c-0.3-0.4-0.5-0.9-0.4-1.5c6.2-43.5,37.4-77.6,37.8-77.9&#10;&#9;&#9;c0.2-0.3,0.6-0.4,0.9-0.5c5.8-1.5,9.3,0.3,11.2,2c1.3,1.2,2.2,2.7,2.7,4.4c0.2,0.7,0,1.4-0.6,1.9c-39.6,34.5-44.1,70.3-44.1,70.6&#10;&#9;&#9;C192.5,200.2,191.7,200.9,190.7,200.9z M188.6,197.2h0.5c1.3-7.6,8.7-39.2,44.1-70.5c-0.8-1.5-3-4.1-8.5-2.9&#10;&#9;&#9;C221.3,127.6,194.9,158.4,188.6,197.2L188.6,197.2z"/>
	<path class="st1_apple-56 targetColor" d="M192.6,192c0,0-42.5-41.9-91.2-7.4s-52.7,87.1-28.3,144.1c25.3,59.1,80.1,92.4,122.6,68.4&#10;&#9;&#9;c0,0,9.9,14.3,48.7,7.1s82.5-81.7,85-150.7s-56.1-82.7-78.3-82.6S192.6,192,192.6,192z" style="fill: rgb(104, 225, 253);"/>
	<path class="st0_apple-56" d="M224.4,408.1c-18.3,0-26.4-6-29.1-8.7c-15.9,8.5-34,9.7-52.5,3.5c-29.3-9.9-56-37.4-71.4-73.4&#10;&#9;&#9;c-27-63.2-17-113.8,29-146.4c45.1-32,85.6,0.5,92.5,6.6c6.6-3.7,37.8-20.5,58.2-20.6h0.2c16.6,0,42,6.4,59.6,24.6&#10;&#9;&#9;c14.4,14.9,21.2,35,20.3,60c-2.4,68.1-46.1,145-86.5,152.4C238,407.4,231.2,408,224.4,408.1z M195.7,395.2c0.6,0,1.2,0.3,1.5,0.8&#10;&#9;&#9;c0.1,0.1,9.9,13.1,46.8,6.4c39-7.2,81.1-82.3,83.5-148.9c0.9-23.9-5.6-43.1-19.3-57.2c-17.9-18.5-44.1-23.5-57-23.5h-0.2&#10;&#9;&#9;c-21.4,0.1-57.2,20.6-57.6,20.8c-0.7,0.4-1.6,0.3-2.2-0.3c-1.7-1.7-42-40.4-88.8-7.2c-56,39.7-46,99.1-27.7,141.9&#10;&#9;&#9;c15,35.1,40.9,61.8,69.2,71.4c18,6.1,35.5,4.7,50.8-3.9C195,395.3,195.4,395.2,195.7,395.2L195.7,395.2z"/>
	<path class="st2_apple-56" d="M197,161.2c0,0,26.7-58.4-76.6-69.5c0,0-1.7,27.7,15.9,52.7C160,178.1,197,161.2,197,161.2z"/>
	<path class="st0_apple-56" d="M175.5,167.2c-12.7,0-28.5-4.3-40.7-21.7c-17.7-25.2-16.3-52.7-16.2-53.9c0.1-1,1-1.8,2-1.7c0,0,0,0,0.1,0&#10;&#9;&#9;c39.7,4.3,65.3,15.9,76,34.7c10.5,18.5,2.4,36.6,2.1,37.4c-0.2,0.4-0.5,0.7-0.9,0.9C190.8,165.8,183.2,167.2,175.5,167.2z&#10;&#9;&#9; M122.3,93.8c0,6.7,1.3,29.2,15.6,49.6c21,29.9,52.6,18.6,57.8,16.5c1.3-3.3,6.3-18.5-2.2-33.4C183.5,109.1,159.6,98.1,122.3,93.8z&#10;&#9;&#9; M197,161.2L197,161.2z"/>
	<path class="st0_apple-56" d="M197,163.1c-0.6,0-1.2-0.3-1.6-0.9c-18.5-29.3-75.5-68.6-76-69c-0.9-0.5-1.1-1.7-0.6-2.6&#10;&#9;&#9;c0.5-0.9,1.7-1.1,2.6-0.6c0,0,0.1,0.1,0.1,0.1c2.4,1.6,58.2,40.1,77.1,70.1c0.6,0.9,0.3,2-0.5,2.6C197.8,163,197.4,163.1,197,163.1&#10;&#9;&#9;z"/>
	<path class="st3_apple-56" d="M76.8,260.4h-0.2c-1-0.1-1.7-1.1-1.6-2.1c0,0,0,0,0,0c2.9-23.4,13.4-38.7,21.7-47.4c9-9.5,17.2-13.3,17.6-13.5&#10;&#9;&#9;c1-0.4,2,0.1,2.4,1.1c0.3,0.9,0,1.9-0.9,2.3c-0.1,0-8,3.8-16.6,12.8c-7.8,8.3-17.8,22.9-20.6,45.2&#10;&#9;&#9;C78.6,259.7,77.8,260.4,76.8,260.4z"/>
	<path class="st3_apple-56" d="M128,196.9c-1,0-1.9-0.9-1.8-1.9c0-0.8,0.5-1.5,1.3-1.7l9.2-3.1c1-0.3,2,0.2,2.3,1.2s-0.2,2-1.2,2.3l-9.2,3.1&#10;&#9;&#9;C128.4,196.9,128.2,196.9,128,196.9z"/>
</g>
<g id="apple-2_apple-56">
	<path class="st1_apple-56 targetColor" d="M441.5,306.2c0,56.4-55.2,102.1-123.2,102.1s-123.2-45.7-123.2-102.1H441.5z" style="fill: rgb(104, 225, 253);"/>
	<path class="st0_apple-56" d="M318.3,410.1c-69,0-125.1-46.6-125.1-103.9c0-1,0.8-1.9,1.8-1.9h0h246.5c1,0,1.9,0.8,1.9,1.9l0,0&#10;&#9;&#9;C443.4,363.5,387.3,410.1,318.3,410.1z M196.9,308.1c1.2,54.4,55.2,98.4,121.4,98.4s120.2-44,121.4-98.4H196.9z"/>
	<path class="st3_apple-56" d="M424.1,306.2c0,45.5-47.4,82.3-105.8,82.3s-105.8-36.9-105.8-82.3H424.1z"/>
	<path class="st0_apple-56" d="M318.3,390.4c-59.4,0-107.7-37.8-107.7-84.2c0-1,0.8-1.9,1.9-1.9h211.7c1,0,1.9,0.8,1.9,1.8c0,0,0,0,0,0&#10;&#9;&#9;C426,352.6,377.7,390.4,318.3,390.4z M214.3,308.1c1.3,43.5,47.4,78.6,104,78.6s102.7-35.1,104-78.6H214.3z"/>
	<path class="st4_apple-56" d="M323.9,337.8c-30.3,0-60.6-2.6-67.2-7.8c-4.2-3.3-6.3-7-6.2-11c0.1-6.5,6-11,6.3-11.2c0.8-0.6,2-0.4,2.6,0.4&#10;&#9;&#9;s0.4,2-0.4,2.6l0,0l0,0c0,0-4.8,3.7-4.8,8.3c0,2.7,1.6,5.4,4.8,8c11.4,9,118.8,9.1,129.1,0.1c2.4-2.1,3.5-4.2,3.3-6.3&#10;&#9;&#9;c-0.4-3.8-5.1-7.1-6.9-8.1c-0.9-0.5-1.2-1.7-0.7-2.5c0.5-0.9,1.6-1.2,2.4-0.7c0.3,0.2,8.1,4.5,8.8,10.9c0.4,3.3-1.1,6.5-4.5,9.5&#10;&#9;&#9;C384.6,335.2,354.3,337.8,323.9,337.8z"/>
	<path class="st0_apple-56" d="M352.8,324.4c-0.6,0-1.1-0.2-1.4-0.7l-3.7-4.5c-0.7-0.8-0.7-1.9,0.1-2.6c0.8-0.7,1.9-0.7,2.6,0.1&#10;&#9;&#9;c0,0.1,0.1,0.1,0.1,0.2l3.7,4.5c0.6,0.8,0.5,2-0.3,2.6C353.6,324.3,353.2,324.4,352.8,324.4L352.8,324.4z"/>
	<path class="st0_apple-56" d="M274.8,320c-1,0-1.9-0.8-1.8-1.9c0-0.8,0.5-1.5,1.3-1.8l8.8-2.8c1-0.3,2,0.2,2.3,1.2c0.3,1-0.2,2-1.2,2.3&#10;&#9;&#9;l-8.8,2.8C275.1,320,275,320,274.8,320z"/>
	<path class="st0_apple-56" d="M310.6,324.4c-0.3,0-0.7-0.1-1-0.3c-0.9-0.5-1.2-1.7-0.6-2.5l4.3-7.2c0.5-0.9,1.7-1.2,2.5-0.6&#10;&#9;&#9;c0.9,0.5,1.2,1.7,0.6,2.5l-4.3,7.2C311.9,324.1,311.3,324.4,310.6,324.4z"/>
</g>
</svg>