<svg id="_0302_paris" xmlns="http://www.w3.org/2000/svg" viewBox="0 0 500 500" data-imageid="paris-33" imageName="Paris" class="illustrations_image" style="width: 151px;"><defs><style>.cls-1_paris-33{opacity:.15;}.cls-1_paris-33,.cls-2_paris-33{fill:#ffd200;}.cls-3_paris-33,.cls-4_paris-33,.cls-5_paris-33,.cls-6_paris-33,.cls-7_paris-33{fill:#e6e6e6;}.cls-4_paris-33{opacity:.33;}.cls-8_paris-33{fill:#fff;opacity:.44;}.cls-5_paris-33{opacity:.37;}.cls-6_paris-33{opacity:.52;}.cls-9_paris-33{fill:#24285b;}.cls-7_paris-33{opacity:.18;}.cls-10_paris-33{fill:#68e1fd;}</style></defs><g id="sun_paris-33"><circle class="cls-2_paris-33" cx="152.57" cy="97.44" r="33.68"/><circle class="cls-1_paris-33" cx="152.57" cy="97.44" r="52.64"/></g><g id="bg_paris-33"><path class="cls-5_paris-33" d="m82.99,452.63s-9.42-28.16,10.38-42.71c19.8-14.55,17.75,25.47,36.87,8.19,19.12-17.28,18.08-23.24,37.56,0,19.47,23.24,20.14-16.37,45.58,1.82,25.44,18.19,37.9-5.46,54.54-4.55s29.62,37.25,29.62,37.25H82.99Z"/><path class="cls-7_paris-33" d="m372.62,339.8v-115.39l-53.62,11.49v74.52l-52.76-34.3h-53.62v56.86h-52.93v67.32h-17.6v-127.69s-21.35-9.73-22.13-49.2c-.78,39.47-22.13,49.2-22.13,49.2v180.61h221.17v1h105.56v-120.24l-51.94,5.82Z"/><path class="cls-3_paris-33" d="m439.14,452.63s9.42-28.16-10.38-42.71c-19.8-14.55-17.75,25.47-36.87,8.19-19.12-17.28-18.08-23.24-37.56,0-19.47,23.24-20.14-16.37-45.58,1.82-25.44,18.19-37.9-5.46-54.54-4.55-16.64.91-29.62,37.25-29.62,37.25h214.56Z"/><path class="cls-3_paris-33" d="m83.71,175.39c-1.05,0-2.05.19-2.98.52.46-1.44.7-2.97.7-4.56,0-8.33-6.75-15.08-15.08-15.08s-15.08,6.75-15.08,15.08c0,.4.03.8.06,1.19-1.48-.75-3.16-1.19-4.94-1.19-6.03,0-10.92,4.89-10.92,10.92s4.89,10.92,10.92,10.92h37.31c4.92,0,8.9-3.99,8.9-8.9s-3.99-8.9-8.9-8.9Z"/><path class="cls-6_paris-33" d="m455.62,280.16c-1.05,0-2.05.19-2.98.52.46-1.44.7-2.97.7-4.56,0-8.33-6.75-15.08-15.08-15.08s-15.08,6.75-15.08,15.08c0,.4.03.8.06,1.19-1.48-.75-3.16-1.19-4.94-1.19-6.03,0-10.92,4.89-10.92,10.92s4.89,10.92,10.92,10.92h37.31c4.92,0,8.9-3.99,8.9-8.9s-3.99-8.9-8.9-8.9Z"/><path class="cls-4_paris-33" d="m372.71,93.5c-1.39.03-2.72.31-3.96.77.57-1.93.86-3.97.82-6.08-.21-11.09-9.37-19.91-20.46-19.7-11.09.21-19.91,9.37-19.7,20.46.01.53.06,1.06.11,1.58-2-.97-4.24-1.5-6.61-1.46-8.03.15-14.42,6.79-14.26,14.82.15,8.03,6.79,14.42,14.82,14.26l49.68-.95c6.55-.12,11.75-5.53,11.63-12.08-.12-6.55-5.53-11.75-12.08-11.63Z"/></g><g id="paris_paris-33"><rect class="cls-9_paris-33" x="56.69" y="453.02" width="406.93" height="17.36" rx="5.29" ry="5.29"/><path class="cls-10_paris-33 targetColor" d="m268.33,112.33h-19.02s13.03,209.24-77.56,321.85h27.91c5.11-28.12,29.71-49.46,59.31-49.46s54.2,21.33,59.31,49.46h29.19s-90.54-105-79.13-321.85Zm-32.34,240.05c8.37-20.16,13.7-63.91,13.7-63.91h15.98c3.04,25.11,13.32,63.91,13.32,63.91h-42.99Z" style="fill: rgb(104, 225, 253);"/><rect class="cls-10_paris-33 targetColor" x="208.03" y="345.19" width="102.15" height="10.27" rx="2.84" ry="2.84" style="fill: rgb(104, 225, 253);"/><rect class="cls-8_paris-33" x="208.03" y="345.19" width="102.15" height="10.27" rx="2.84" ry="2.84"/><rect class="cls-10_paris-33 targetColor" x="226.48" y="278.2" width="64.29" height="10.27" rx="2.84" ry="2.84" style="fill: rgb(104, 225, 253);"/><rect class="cls-8_paris-33" x="226.48" y="278.2" width="64.29" height="10.27" rx="2.84" ry="2.84"/><path class="cls-10_paris-33 targetColor" d="m241.7,93.32h33.2v24.99c0,4.53-3.68,8.21-8.21,8.21h-16.78c-4.53,0-8.21-3.68-8.21-8.21v-24.99h0Z" style="fill: rgb(104, 225, 253);"/><path class="cls-8_paris-33" d="m241.7,93.32h33.2v24.99c0,4.53-3.68,8.21-8.21,8.21h-16.78c-4.53,0-8.21-3.68-8.21-8.21v-24.99h0Z"/><rect class="cls-10_paris-33 targetColor" x="247.69" y="79.26" width="21.11" height="14.06" style="fill: rgb(104, 225, 253);"/><rect class="cls-10_paris-33 targetColor" x="255.97" y="29.62" width="4.85" height="49.65" style="fill: rgb(104, 225, 253);"/><rect class="cls-8_paris-33" x="255.97" y="29.62" width="4.85" height="49.65"/><rect class="cls-2_paris-33" x="146.72" y="431.8" width="226.99" height="20.83"/></g></svg>