<svg id="_0109_report_analysis" xmlns="http://www.w3.org/2000/svg" viewBox="0 0 500 500" data-imageid="report-analysis-29" imageName="Report Analysis" class="illustrations_image" style="width: 151px;"><defs><style>.cls-1_report-analysis-29{fill:#fff;}.cls-2_report-analysis-29{fill:#f4a28c;}.cls-3_report-analysis-29{opacity:.46;}.cls-3_report-analysis-29,.cls-4_report-analysis-29,.cls-5_report-analysis-29,.cls-6_report-analysis-29,.cls-7_report-analysis-29{fill:none;}.cls-4_report-analysis-29{opacity:.58;}.cls-8_report-analysis-29{fill:#e6e6e6;}.cls-5_report-analysis-29{opacity:.03;}.cls-6_report-analysis-29{opacity:.73;}.cls-7_report-analysis-29{opacity:.08;}.cls-9_report-analysis-29{fill:#24285b;}.cls-10_report-analysis-29{fill:#000001;}.cls-11_report-analysis-29{fill:#ffd200;}.cls-12_report-analysis-29{fill:#68e1fd;}</style></defs><g id="screen_report-analysis-29"><rect class="cls-9_report-analysis-29" x="21.23" y="64.07" width="419.81" height="259.4"/><path class="cls-1_report-analysis-29" d="m100.85,208.08c-22.02,0-39.94-17.92-39.94-39.94s17.92-39.94,39.94-39.94,39.94,17.92,39.94,39.94-17.92,39.94-39.94,39.94Zm0-69.12c-16.09,0-29.18,13.09-29.18,29.18s13.09,29.18,29.18,29.18,29.18-13.09,29.18-29.18-13.09-29.18-29.18-29.18Z"/><path class="cls-12_report-analysis-29 targetColor" d="m140.79,168.14h-10.76c0-16.09-13.09-29.18-29.18-29.18v-10.76c22.02,0,39.94,17.92,39.94,39.94Z" style="fill: rgb(104, 225, 253);"/><path class="cls-11_report-analysis-29" d="m100.85,208.08v-10.76c16.09,0,29.18-13.09,29.18-29.18h10.76c0,22.02-17.92,39.94-39.94,39.94Z"/><rect class="cls-12_report-analysis-29 targetColor" x="78.29" y="223.16" width="45.12" height="18.63" style="fill: rgb(104, 225, 253);"/><path class="cls-1_report-analysis-29" d="m101.73,155.21c.71,0,.93.25.93.96v1.51c2.84.4,4.47,1.82,5.67,4.29.37.74.22,1.14-.62,1.51l-1.51.68c-.71.34-1.05.18-1.45-.56-.83-1.6-1.85-2.37-3.95-2.37-2.62,0-3.82.77-3.82,2.53,0,1.14,1.05,1.85,2.13,2.07.52.12,1.26.25,2.22.34,1.73.15,2.59.28,4.1.8.77.28,1.36.59,1.82.99.86.8,1.63,2.34,1.63,4.32,0,3.36-2.25,5.64-6.23,6.23v1.6c0,.71-.22.96-.93.96h-1.7c-.71,0-.96-.25-.96-.96v-1.57c-3.08-.4-5.15-1.97-6.17-4.75-.25-.68,0-1.14.71-1.42l1.51-.56c.77-.28,1.11-.09,1.45.68.68,1.73,2.07,2.59,4.16,2.59,2.84,0,4.26-.89,4.26-2.71,0-.96-.43-1.54-1.33-1.91-.89-.34-1.67-.46-3.05-.59-1.7-.15-2.65-.34-4.13-.89-.74-.28-1.33-.62-1.79-1.02-.93-.83-1.67-2.31-1.67-4.19,0-3.33,2.1-5.55,6.04-6.08v-1.51c0-.71.25-.96.96-.96h1.7Z"/><circle class="cls-1_report-analysis-29" cx="47.06" cy="88.68" r="7.43"/><circle class="cls-12_report-analysis-29 targetColor" cx="69.17" cy="88.68" r="7.43" style="fill: rgb(104, 225, 253);"/><circle class="cls-11_report-analysis-29" cx="90" cy="88.68" r="7.43"/><rect class="cls-1_report-analysis-29" x="360.5" y="220.85" width="46.15" height="7.77"/><rect class="cls-1_report-analysis-29" x="360.5" y="241.33" width="46.15" height="7.77"/><rect class="cls-12_report-analysis-29 targetColor" x="332.51" y="220.85" width="13.61" height="7.77" style="fill: rgb(104, 225, 253);"/><rect class="cls-11_report-analysis-29" x="332.51" y="241.33" width="13.61" height="7.77"/><circle class="cls-1_report-analysis-29" cx="365.57" cy="149.06" r="46.45"/><path class="cls-11_report-analysis-29" d="m365.57,102.61v46.45l45.48-9.46s-6.35-37.3-45.48-36.99Z"/><path class="cls-12_report-analysis-29 targetColor" d="m365.57,149.06l-25.82,38.62s26.04,19.81,56.19-3.48c0,0,20.63-14.95,15.12-44.6l-45.48,9.46Z" style="fill: rgb(104, 225, 253);"/><g class="cls-7_report-analysis-29"><path class="cls-10_report-analysis-29" d="m76.6,180.08s-24.92,4.5-22.11,28c2.81,23.5-5.64,106.54,50.5,115.4h99.17l9.1-69.09-15.03-18.3-44.65,22.52-52.72,6.93-18.28-23.75-5.97-61.71Z"/></g><g class="cls-7_report-analysis-29"><path class="cls-10_report-analysis-29" d="m229.28,157.84s-17.89-5.19-25.12,6.4c-7.23,11.59,8.54,31.59-6.67,43.83-15.2,12.24,43.35,10.52,43.35,10.52l-9.71-31.28,4.28-22.67-6.14-6.8Z"/></g></g><g id="sd_report-analysis-29" class="cls-5_report-analysis-29"><ellipse class="cls-10_report-analysis-29" cx="250.81" cy="440.39" rx="203.76" ry="21.47"/></g><g id="plant_report-analysis-29"><g class="cls-4_report-analysis-29"><path class="cls-12_report-analysis-29 targetColor" d="m89.04,418.23s-12.81-3.5-15.6-15.42c0,0,19.85-4.01,20.42,16.48l-4.82-1.05Z" style="fill: rgb(104, 225, 253);"/></g><g class="cls-6_report-analysis-29"><path class="cls-12_report-analysis-29 targetColor" d="m90.61,416.96s-8.95-14.15-1.07-27.38c0,0,15.09,9.59,8.39,27.41l-7.31-.03Z" style="fill: rgb(104, 225, 253);"/></g><path class="cls-12_report-analysis-29 targetColor" d="m92.91,416.97s4.73-14.94,19.03-17.77c0,0,2.68,9.7-9.26,17.82l-9.77-.04Z" style="fill: rgb(104, 225, 253);"/><polygon class="cls-9_report-analysis-29" points="83.62 416.63 86.22 434.4 102.57 434.47 104.99 416.72 83.62 416.63"/></g><g id="person_report-analysis-29"><path class="cls-1_report-analysis-29" d="m100.85,208.08c-9.78,0-19.19-3.57-26.5-10.05l7.14-8.05c5.34,4.73,12.21,7.34,19.36,7.34v10.76Z"/><path class="cls-12_report-analysis-29 targetColor" d="m202.44,216.62c-3.12-11.94-16.94-17.63-27.55-11.33-10.45,6.2-24.38,17.65-40.19,38.82-32.26,43.17-46.65-42.49-46.65-42.49l-16.99,3.31s-4.57,91.55,50.99,81.95c48.79-8.43,91.29-28.54,80.4-70.26Z" style="fill: rgb(104, 225, 253);"/><g class="cls-3_report-analysis-29"><path class="cls-1_report-analysis-29" d="m202.44,216.62c-3.12-11.94-16.94-17.63-27.55-11.33-10.45,6.2-24.38,17.65-40.19,38.82-32.26,43.17-46.65-42.49-46.65-42.49l-16.99,3.31s-4.57,91.55,50.99,81.95c48.79-8.43,91.29-28.54,80.4-70.26Z"/></g><path class="cls-12_report-analysis-29 targetColor" d="m275.63,430.25l8.07,6.31c1.43,1.12.64,3.4-1.17,3.4h-10.22c-3.02,0-5.46-2.44-5.46-5.46v-4.25h8.79Z" style="fill: rgb(104, 225, 253);"/><path class="cls-12_report-analysis-29 targetColor" d="m189.43,430.25l-8.07,6.31c-1.43,1.12-.64,3.4,1.17,3.4h10.22c3.02,0,5.46-2.44,5.46-5.46v-4.25s-8.79,0-8.79,0Z" style="fill: rgb(104, 225, 253);"/><polygon class="cls-11_report-analysis-29" points="399.26 329.97 406.4 289.59 355.75 289.59 351.35 324.01 328.13 324.33 328.13 329.97 399.26 329.97"/><path class="cls-2_report-analysis-29" d="m222.24,197.97l5.62-24.52s.18-11.47,7.56-8.81c7.38,2.66,9.58,15.98,5.61,20.49-3.97,4.51-6.63-1.64-6.63-1.64v13.55l-12.15.93Z"/><path class="cls-12_report-analysis-29 targetColor" d="m214.9,196.85s-45.9-4.09-51.91,26.9c-6,30.98,36.73,89.5,36.73,89.5l59.53-2.32s92.49-129.91-44.36-114.08Z" style="fill: rgb(104, 225, 253);"/><polygon class="cls-1_report-analysis-29" points="360.03 294.26 356.57 323.47 394.27 323.47 398.68 294.26 360.03 294.26"/><path class="cls-11_report-analysis-29" d="m223.97,181.49l.1-5.8c.05-2.69-.91-5.36-2.83-7.25-1.27-1.25-2.16-3.04-.64-5.22,3.04-4.35,5.6-1.54,8.68-5.38,3.07-3.84,5.38-4.61,8.96,0,3.59,4.61,6.4-.77,8.45,4.87,2.05,5.64.26,8.45-7.68,8.96-6.75.44-4.65,8.08-10.92,12.1-1.8,1.15-4.16-.15-4.13-2.28Z"/><g class="cls-7_report-analysis-29"><path class="cls-10_report-analysis-29" d="m387.04,308.87s3.8,5.66-2.82,7.63c-6.62,1.97-19.85-5.63-22.52.99s.99,5.99.99,5.99l-11.33.54,2.22-17.41,9.67-7.27,9.99,1.13,13.79,8.42Z"/></g><g class="cls-7_report-analysis-29"><path class="cls-10_report-analysis-29" d="m237.27,218.6s-10.01,23.37,0,44.98c10.01,21.61-17.48,48.89-17.48,48.89l39.46-1.53s14.45-21.43,17.33-29.77c2.89-8.33-39.31-62.57-39.31-62.57Z"/></g><path class="cls-12_report-analysis-29 targetColor" d="m240.17,236.12c-13.08-26.12,21.33-49.93,41.07-28.39,6.26,6.82,12.33,16.43,16.9,29.95,15.21,44.98,71.44,54.9,71.44,54.9v13.73s-87.97,8.17-124.36-61.98c0,0-2.54-3.19-5.06-8.21Z" style="fill: rgb(104, 225, 253);"/><g class="cls-3_report-analysis-29"><path class="cls-1_report-analysis-29" d="m240.17,236.12c-13.08-26.12,21.33-49.93,41.07-28.39,6.26,6.82,12.33,16.43,16.9,29.95,15.21,44.98,71.44,54.9,71.44,54.9v13.73s-87.97,8.17-124.36-61.98c0,0-2.54-3.19-5.06-8.21Z"/></g><polygon class="cls-9_report-analysis-29" points="199.72 313.25 186.21 430.25 199.43 430.27 228.98 336.34 262.27 430.28 277.41 430.28 259.25 310.93 199.72 313.25"/><rect class="cls-8_report-analysis-29" x="312.91" y="328.62" width="113.33" height="111.35"/><path class="cls-2_report-analysis-29" d="m369.58,304.15s9.77,9.44,16.39,6.79c6.61-2.65,1.12-15.72-16.39-16.71v9.92Z"/><g class="cls-7_report-analysis-29"><path class="cls-10_report-analysis-29" d="m350.21,328.62s-30.58,88.11,29.39,111.31h-66.96v-111.31h37.56Z"/></g><path class="cls-2_report-analysis-29" d="m88.04,201.62s-1.7-21.61-8.32-22.71c-6.63-1.1-2.66,11.36-2.66,11.36-2.65,3.42-13.34,6.72-6.01,14.66l16.99-3.31Z"/></g><g id="chart_report-analysis-29"><rect class="cls-11_report-analysis-29" x="387.48" y="38.14" width="91.29" height="58.18"/><rect class="cls-9_report-analysis-29" x="405.49" y="72.16" width="12.38" height="12.38"/><rect class="cls-9_report-analysis-29" x="426.36" y="58.86" width="12.38" height="25.69"/><rect class="cls-9_report-analysis-29" x="448.37" y="49.91" width="12.38" height="34.63"/></g></svg>