<svg id="_0404_seattle" xmlns="http://www.w3.org/2000/svg" viewBox="0 0 500 500" data-imageid="seattle-25" imageName="Seattle" class="illustrations_image" style="width: 151px;"><defs><style>.cls-1_seattle-25{fill:#fff;opacity:.4;}.cls-2_seattle-25,.cls-3_seattle-25,.cls-4_seattle-25{fill:#e6e6e6;}.cls-5_seattle-25{opacity:.17;}.cls-5_seattle-25,.cls-6_seattle-25{fill:#ffd200;}.cls-3_seattle-25{opacity:.3;}.cls-7_seattle-25{opacity:.1;}.cls-8_seattle-25{fill:#24285b;}.cls-4_seattle-25{opacity:.18;}.cls-9_seattle-25{fill:#68e1fd;}</style></defs><g id="bg_seattle-25"><path class="cls-4_seattle-25" d="m67.52,442.15S-1.52,349.57,33,233.98C67.52,118.39,171.07,36.02,302.5,63.47c131.43,27.46,218.77,105.37,150.16,378.13l-385.15.55Z"/><path class="cls-3_seattle-25" d="m359.15,115.83c-.52,0-1.01.09-1.47.26.23-.71.35-1.47.35-2.25,0-4.12-3.34-7.45-7.45-7.45s-7.45,3.34-7.45,7.45c0,.2.01.39.03.59-.73-.37-1.56-.59-2.44-.59-2.98,0-5.4,2.42-5.4,5.4s2.42,5.4,5.4,5.4h18.44c2.43,0,4.4-1.97,4.4-4.4s-1.97-4.4-4.4-4.4Z"/><path class="cls-3_seattle-25" d="m203.33,147.97c-.68,0-1.33.12-1.93.34.3-.93.46-1.92.46-2.95,0-5.4-4.38-9.78-9.78-9.78s-9.78,4.38-9.78,9.78c0,.26.02.52.04.77-.96-.49-2.05-.77-3.2-.77-3.91,0-7.08,3.17-7.08,7.08s3.17,7.08,7.08,7.08h24.19c3.19,0,5.77-2.58,5.77-5.77s-2.58-5.77-5.77-5.77Z"/><circle class="cls-5_seattle-25" cx="107.18" cy="105.68" r="57.31"/><circle class="cls-6_seattle-25" cx="107.18" cy="105.68" r="37.52"/><polygon class="cls-2_seattle-25" points="427.98 346.24 427.98 303.69 420.9 303.69 420.9 237.12 408.7 224.32 378.65 224.32 369.72 237.12 369.72 315.59 332.32 315.59 332.32 161.17 317.44 161.17 317.44 154.47 294.09 154.47 294.09 141.08 291.56 141.08 291.56 154.17 285.01 154.17 285.01 161.17 280.7 161.17 280.7 334.33 217.02 334.33 217.02 208.77 206.31 208.77 206.31 181.99 152.75 181.99 152.75 208.77 138.77 214.03 138.77 245.37 122.7 245.37 122.7 217.7 111.99 202.52 75.41 202.52 75.41 308.17 54.47 308.17 54.47 440.85 75.41 440.85 445.53 440.85 445.53 346.24 427.98 346.24"/></g><g id="seatle_seattle-25"><ellipse class="cls-9_seattle-25 targetColor" cx="256.52" cy="124.97" rx="45.27" ry="3.91" style="fill: rgb(104, 225, 253);"/><polygon class="cls-8_seattle-25" points="294.18 123.33 218.85 123.33 215.41 110.59 297.62 110.59 294.18 123.33"/><polygon class="cls-8_seattle-25" points="292.61 112.04 220.43 112.04 217.13 99.31 295.9 99.31 292.61 112.04"/><path class="cls-9_seattle-25 targetColor" d="m292.45,99.31h-71.87s.51-2.1,7.68-3.98c7.2-1.88,15.13-3.9,14.13-6.42-1.02-2.53-6.82-4.54-7.71-6.31-.86-1.77-.11-1.88.78-2.02.86-.13,21.04,0,21.04,0,0,0,20.18-.13,21.07,0,.89.13,1.64.24.75,2.02-.89,1.77-6.69,3.79-7.68,6.31-1.02,2.53,6.93,4.54,14.11,6.42,7.2,1.88,7.71,3.98,7.71,3.98Z" style="fill: rgb(104, 225, 253);"/><rect class="cls-9_seattle-25 targetColor" x="240.77" y="77.21" width="31.49" height="3.31" style="fill: rgb(104, 225, 253);"/><path class="cls-9_seattle-25 targetColor" d="m262.05,77.23h-11.07s3.8-25.06,5.13-37.75c.05-.5.77-.5.82,0,1.34,12.69,5.12,37.75,5.12,37.75Z" style="fill: rgb(104, 225, 253);"/><ellipse class="cls-9_seattle-25 targetColor" cx="256.52" cy="394.33" rx="40.24" ry="9.38" style="fill: rgb(104, 225, 253);"/><path class="cls-9_seattle-25 targetColor" d="m293.89,446.35h-16.27c-.12-2.76-15.09-212.32-21.1-212.32s-20.98,209.57-21.1,212.32h-16.27s29.72-191.66,29.72-255.31c0-19.19-5.24-38.97-9.13-51.04-2.3-7.15-4.14-11.59-4.14-11.59l7.67-1.26c.28,3.98.98,8.41,1.92,12.85,2.96,14.05,8.43,28.18,11.33,28.18s8.37-14.13,11.33-28.18c.94-4.44,1.64-8.87,1.92-12.85l7.67,1.26s-1.84,4.44-4.14,11.59c-3.9,12.07-9.13,31.86-9.13,51.04,0,57.16,29.72,255.31,29.72,255.31Z" style="fill: rgb(104, 225, 253);"/><path class="cls-7_seattle-25" d="m243.27,127.15c.28,3.98.98,8.41,1.92,12.85h-5.46c-2.3-7.15-4.14-11.59-4.14-11.59l7.67-1.26Z"/><path class="cls-7_seattle-25" d="m277.44,128.41s-1.84,4.44-4.14,11.59h-5.46c.94-4.44,1.64-8.87,1.92-12.85l7.67,1.26Z"/><ellipse class="cls-9_seattle-25 targetColor" cx="256.52" cy="110.59" rx="55.73" ry="4.92" style="fill: rgb(104, 225, 253);"/><ellipse class="cls-9_seattle-25 targetColor" cx="256.52" cy="110.59" rx="55.73" ry="4.92" style="fill: rgb(104, 225, 253);"/><rect class="cls-9_seattle-25 targetColor" x="371.37" y="151.62" width="62.65" height="294.73" style="fill: rgb(104, 225, 253);"/><rect class="cls-7_seattle-25" x="371.37" y="151.62" width="62.65" height="294.73"/><rect class="cls-9_seattle-25 targetColor" x="379.25" y="143.27" width="47.27" height="8.35" style="fill: rgb(104, 225, 253);"/><rect class="cls-9_seattle-25 targetColor" x="146.32" y="249.81" width="42.67" height="196.54" style="fill: rgb(104, 225, 253);"/><polygon class="cls-9_seattle-25 targetColor" points="140.67 243.64 194.64 243.64 188.99 249.81 146.32 249.81 140.67 243.64" style="fill: rgb(104, 225, 253);"/><polygon class="cls-7_seattle-25" points="140.67 243.64 194.64 243.64 188.99 249.81 146.32 249.81 140.67 243.64"/><rect class="cls-9_seattle-25 targetColor" x="140.67" y="239.98" width="53.97" height="3.66" style="fill: rgb(104, 225, 253);"/><rect class="cls-1_seattle-25" x="140.67" y="239.98" width="53.97" height="3.66"/><rect class="cls-9_seattle-25 targetColor" x="145.4" y="234.35" width="44.5" height="5.63" style="fill: rgb(104, 225, 253);"/><rect class="cls-7_seattle-25" x="145.4" y="234.35" width="44.5" height="5.63"/><polygon class="cls-9_seattle-25 targetColor" points="145.4 234.35 189.9 234.35 170.27 198 165.04 198 145.4 234.35" style="fill: rgb(104, 225, 253);"/><polygon class="cls-1_seattle-25" points="145.4 234.35 189.9 234.35 170.27 198 165.04 198 145.4 234.35"/><rect class="cls-9_seattle-25 targetColor" x="165.68" y="194.37" width="3.95" height="4.57" style="fill: rgb(104, 225, 253);"/><circle class="cls-9_seattle-25 targetColor" cx="167.65" cy="192.62" r="3.14" style="fill: rgb(104, 225, 253);"/><rect class="cls-1_seattle-25" x="153.04" y="257.71" width="11.47" height="5.35"/><rect class="cls-1_seattle-25" x="170.79" y="257.71" width="11.47" height="5.35"/><rect class="cls-1_seattle-25" x="153.04" y="268.45" width="11.47" height="5.35"/><rect class="cls-1_seattle-25" x="170.79" y="268.45" width="11.47" height="5.35"/><rect class="cls-1_seattle-25" x="153.04" y="279.18" width="11.47" height="5.35"/><rect class="cls-1_seattle-25" x="170.79" y="279.18" width="11.47" height="5.35"/><rect class="cls-1_seattle-25" x="153.04" y="289.92" width="11.47" height="5.35"/><rect class="cls-1_seattle-25" x="170.79" y="289.92" width="11.47" height="5.35"/><rect class="cls-1_seattle-25" x="153.04" y="300.66" width="11.47" height="5.35"/><rect class="cls-1_seattle-25" x="170.79" y="300.66" width="11.47" height="5.35"/><rect class="cls-1_seattle-25" x="153.04" y="311.4" width="11.47" height="5.35"/><rect class="cls-1_seattle-25" x="170.79" y="311.4" width="11.47" height="5.35"/><rect class="cls-1_seattle-25" x="153.04" y="322.14" width="11.47" height="5.35"/><rect class="cls-1_seattle-25" x="170.79" y="322.14" width="11.47" height="5.35"/><rect class="cls-1_seattle-25" x="153.04" y="332.88" width="11.47" height="5.35"/><rect class="cls-1_seattle-25" x="170.79" y="332.88" width="11.47" height="5.35"/><rect class="cls-1_seattle-25" x="153.04" y="343.61" width="11.47" height="5.35"/><rect class="cls-1_seattle-25" x="170.79" y="343.61" width="11.47" height="5.35"/><rect class="cls-1_seattle-25" x="153.04" y="354.35" width="11.47" height="5.35"/><rect class="cls-1_seattle-25" x="170.79" y="354.35" width="11.47" height="5.35"/><rect class="cls-1_seattle-25" x="153.04" y="365.09" width="11.47" height="5.35"/><rect class="cls-1_seattle-25" x="170.79" y="365.09" width="11.47" height="5.35"/><rect class="cls-1_seattle-25" x="153.04" y="375.83" width="11.47" height="5.35"/><rect class="cls-1_seattle-25" x="170.79" y="375.83" width="11.47" height="5.35"/><rect class="cls-1_seattle-25" x="153.04" y="386.57" width="11.47" height="5.35"/><rect class="cls-1_seattle-25" x="170.79" y="386.57" width="11.47" height="5.35"/><rect class="cls-1_seattle-25" x="153.04" y="397.31" width="11.47" height="5.35"/><rect class="cls-1_seattle-25" x="170.79" y="397.31" width="11.47" height="5.35"/><rect class="cls-1_seattle-25" x="153.04" y="408.04" width="11.47" height="5.35"/><rect class="cls-1_seattle-25" x="170.79" y="408.04" width="11.47" height="5.35"/><rect class="cls-1_seattle-25" x="153.04" y="418.78" width="11.47" height="5.35"/><rect class="cls-1_seattle-25" x="170.79" y="418.78" width="11.47" height="5.35"/><rect class="cls-9_seattle-25 targetColor" x="319.42" y="378.76" width="95.85" height="67.59" style="fill: rgb(104, 225, 253);"/><polygon class="cls-9_seattle-25 targetColor" points="337.05 254.41 400.07 282.54 400.07 378.76 337.05 378.76 337.05 254.41" style="fill: rgb(104, 225, 253);"/><rect class="cls-1_seattle-25" x="346.9" y="290.37" width="3.39" height="12.76"/><rect class="cls-1_seattle-25" x="355.36" y="290.37" width="3.39" height="12.76"/><rect class="cls-1_seattle-25" x="363.83" y="290.37" width="3.39" height="12.76"/><rect class="cls-1_seattle-25" x="372.3" y="290.37" width="3.39" height="12.76"/><rect class="cls-1_seattle-25" x="380.76" y="290.37" width="3.39" height="12.76"/><rect class="cls-1_seattle-25" x="389.23" y="290.37" width="3.39" height="12.76"/><rect class="cls-1_seattle-25" x="346.9" y="308.94" width="3.39" height="12.76"/><rect class="cls-1_seattle-25" x="355.36" y="308.94" width="3.39" height="12.76"/><rect class="cls-1_seattle-25" x="363.83" y="308.94" width="3.39" height="12.76"/><rect class="cls-1_seattle-25" x="372.3" y="308.94" width="3.39" height="12.76"/><rect class="cls-1_seattle-25" x="380.76" y="308.94" width="3.39" height="12.76"/><rect class="cls-1_seattle-25" x="389.23" y="308.94" width="3.39" height="12.76"/><rect class="cls-1_seattle-25" x="346.9" y="327.51" width="3.39" height="12.76"/><rect class="cls-1_seattle-25" x="355.36" y="327.51" width="3.39" height="12.76"/><rect class="cls-1_seattle-25" x="363.83" y="327.51" width="3.39" height="12.76"/><rect class="cls-1_seattle-25" x="372.3" y="327.51" width="3.39" height="12.76"/><rect class="cls-1_seattle-25" x="380.76" y="327.51" width="3.39" height="12.76"/><rect class="cls-1_seattle-25" x="389.23" y="327.51" width="3.39" height="12.76"/><rect class="cls-1_seattle-25" x="346.9" y="346.08" width="3.39" height="12.76"/><rect class="cls-1_seattle-25" x="355.36" y="346.08" width="3.39" height="12.76"/><rect class="cls-1_seattle-25" x="363.83" y="346.08" width="3.39" height="12.76"/><rect class="cls-1_seattle-25" x="372.3" y="346.08" width="3.39" height="12.76"/><rect class="cls-1_seattle-25" x="380.76" y="346.08" width="3.39" height="12.76"/><rect class="cls-1_seattle-25" x="389.23" y="346.08" width="3.39" height="12.76"/><rect class="cls-1_seattle-25" x="346.9" y="364.65" width="3.39" height="12.76"/><rect class="cls-1_seattle-25" x="355.36" y="364.65" width="3.39" height="12.76"/><rect class="cls-1_seattle-25" x="363.83" y="364.65" width="3.39" height="12.76"/><rect class="cls-1_seattle-25" x="372.3" y="364.65" width="3.39" height="12.76"/><rect class="cls-1_seattle-25" x="380.76" y="364.65" width="3.39" height="12.76"/><rect class="cls-1_seattle-25" x="389.23" y="364.65" width="3.39" height="12.76"/><rect class="cls-1_seattle-25" x="332.5" y="389.69" width="3.39" height="14.8"/><rect class="cls-1_seattle-25" x="340.97" y="389.69" width="3.39" height="14.8"/><rect class="cls-1_seattle-25" x="349.44" y="389.69" width="3.39" height="14.8"/><rect class="cls-1_seattle-25" x="357.9" y="389.69" width="3.39" height="14.8"/><rect class="cls-1_seattle-25" x="366.37" y="389.69" width="3.39" height="14.8"/><rect class="cls-1_seattle-25" x="374.84" y="389.69" width="3.39" height="14.8"/><rect class="cls-1_seattle-25" x="383.3" y="389.69" width="3.39" height="14.8"/><rect class="cls-1_seattle-25" x="391.77" y="389.69" width="3.39" height="14.8"/><rect class="cls-1_seattle-25" x="400.24" y="389.69" width="3.39" height="14.8"/><rect class="cls-1_seattle-25" x="332.5" y="413.67" width="3.39" height="14.8"/><rect class="cls-1_seattle-25" x="340.97" y="413.67" width="3.39" height="14.8"/><rect class="cls-1_seattle-25" x="349.44" y="413.67" width="3.39" height="14.8"/><rect class="cls-1_seattle-25" x="357.9" y="413.67" width="3.39" height="14.8"/><rect class="cls-1_seattle-25" x="366.37" y="413.67" width="3.39" height="14.8"/><rect class="cls-1_seattle-25" x="374.84" y="413.67" width="3.39" height="14.8"/><rect class="cls-1_seattle-25" x="383.3" y="413.67" width="3.39" height="14.8"/><rect class="cls-1_seattle-25" x="391.77" y="413.67" width="3.39" height="14.8"/><rect class="cls-1_seattle-25" x="400.24" y="413.67" width="3.39" height="14.8"/><rect class="cls-9_seattle-25 targetColor" x="49.51" y="325.09" width="86.66" height="121.26" style="fill: rgb(104, 225, 253);"/><rect class="cls-9_seattle-25 targetColor" x="46.83" y="318.57" width="92" height="6.52" style="fill: rgb(104, 225, 253);"/><rect class="cls-1_seattle-25" x="61.23" y="339.58" width="17.26" height="11.63"/><rect class="cls-1_seattle-25" x="84.21" y="339.58" width="17.26" height="11.63"/><rect class="cls-1_seattle-25" x="107.18" y="339.58" width="17.26" height="11.63"/><rect class="cls-1_seattle-25" x="61.23" y="358.38" width="17.26" height="11.63"/><rect class="cls-1_seattle-25" x="84.21" y="358.38" width="17.26" height="11.63"/><rect class="cls-1_seattle-25" x="107.18" y="358.38" width="17.26" height="11.63"/><rect class="cls-1_seattle-25" x="61.23" y="377.19" width="17.26" height="11.63"/><rect class="cls-1_seattle-25" x="84.21" y="377.19" width="17.26" height="11.63"/><rect class="cls-1_seattle-25" x="107.18" y="377.19" width="17.26" height="11.63"/><rect class="cls-1_seattle-25" x="61.23" y="395.99" width="17.26" height="11.63"/><rect class="cls-1_seattle-25" x="84.21" y="395.99" width="17.26" height="11.63"/><rect class="cls-1_seattle-25" x="107.18" y="395.99" width="17.26" height="11.63"/><rect class="cls-1_seattle-25" x="61.23" y="414.79" width="17.26" height="11.63"/><rect class="cls-1_seattle-25" x="84.21" y="414.79" width="17.26" height="11.63"/><rect class="cls-1_seattle-25" x="107.18" y="414.79" width="17.26" height="11.63"/><rect class="cls-8_seattle-25" x="12.39" y="440.67" width="475.21" height="20.22" rx="6.07" ry="6.07"/></g></svg>